<svg xmlns="http://www.w3.org/2000/svg" version="1.1" xmlns:xlink="http://www.w3.org/1999/xlink" xmlns:svgjs="http://svgjs.dev/svgjs" width="1440" height="560" preserveAspectRatio="none" viewBox="0 0 1440 560"><g mask="url(&quot;#SvgjsMask1460&quot;)" fill="none"><rect width="1440" height="560" x="0" y="0" fill="url(&quot;#SvgjsLinearGradient1461&quot;)"></rect><path d="M424.21 564.65C580.04 553.88 693.04 254.06 966.19 253.79 1239.34 253.52 1365.91 425.29 1508.17 427.39" stroke="rgba(51,121,194,0.58)" stroke-width="2"></path><path d="M533.19 659.27C692.8 632.29 745.03 258.07 1026.69 240.1 1308.35 222.13 1392.69 112.36 1520.19 111.3" stroke="rgba(51,121,194,0.58)" stroke-width="2"></path><path d="M436.24 610.81C558.71 595.93 628.14 322.1 835.01 320.08 1041.88 318.06 1034.39 390.08 1233.77 390.08 1433.16 390.08 1531.32 320.34 1632.54 320.08" stroke="rgba(51,121,194,0.58)" stroke-width="2"></path><path d="M214.37 600.28C345.47 594.57 447.99 374.56 688.01 374.04 928.03 373.52 924.84 444.04 1161.66 444.04 1398.48 444.04 1515.6 374.23 1635.3 374.04" stroke="rgba(51,121,194,0.58)" stroke-width="2"></path><path d="M924.43 658.19C1007.48 644.34 961.32 455.17 1181.81 441 1402.31 426.83 1557.39 232.34 1696.58 228.2" stroke="rgba(51,121,194,0.58)" stroke-width="2"></path></g><defs><mask id="SvgjsMask1460"><rect width="1440" height="560" fill="#ffffff"></rect></mask><linearGradient x1="15.28%" y1="-39.29%" x2="84.72%" y2="139.29%" gradientUnits="userSpaceOnUse" id="SvgjsLinearGradient1461"><stop stop-color="#0e2a47" offset="0"></stop><stop stop-color="rgba(56, 33, 211, 1)" offset="1"></stop></linearGradient></defs></svg>